<?xml version="1.0" encoding="UTF-8"?>
<!DOCTYPE svg PUBLIC "-//W3C//DTD SVG 1.1//EN" "http://www.w3.org/Graphics/SVG/1.1/DTD/svg11.dtd">
<!-- Creator: CorelDRAW 2020 (64-Bit) -->
<svg xmlns="http://www.w3.org/2000/svg" xml:space="preserve" width="1.87547cm" height="3.07613cm" version="1.1" shape-rendering="geometricPrecision" text-rendering="geometricPrecision" image-rendering="optimizeQuality" fill-rule="evenodd" clip-rule="evenodd"
viewBox="0 0 610.14 1000.75"
 xmlnsXlink="http://www.w3.org/1999/xlink"
 xmlnsxodm="http://www.corel.com/coreldraw/odm/2003">
 <g id="Layer_x0020_1">
  <metadata id="CorelCorpID_0Corel-Layer"/>
  <g id="_1857483370720">
   <path fill="black" d="M62.01 784.08l481.55 -0.17c1.19,8.2 0.22,82.24 0.29,97.61 0.05,12.61 2.29,36.19 -3.79,45.05 -7.69,11.21 -24.94,7.99 -41.07,8.03 -65.35,0.18 -130.71,-0.09 -196.06,-0 -65.02,0.09 -130.04,-0.03 -195.06,-0.01 -48.27,0.02 -46.06,-0.87 -45.98,-52.08 0.03,-17.32 -0.85,-87.98 0.11,-98.44zm2.17 -61.97c-1.25,-17.32 -0.11,-38.75 -0.17,-56.55 -0.06,-18.57 0.04,-37.16 0.03,-55.73l-0.02 -505.57c0.07,-18.8 -1.61,-35.5 16.28,-39.55 9.52,-2.15 44.31,-0.58 56.43,-0.6 18.55,-0.04 37.19,-0.16 55.73,0.02 28.71,0.28 325.85,-1.47 336.28,0.39 17.39,3.1 15.02,24.06 15.08,41.73l0.01 504.58c-0.07,36.16 1.56,75.67 -0.11,111.47l-479.54 -0.18zm544.82 204.2c1.85,-13.34 0.72,-35.4 0.64,-49.76 -0.61,-116.7 0.33,-234.39 0.06,-351.31 -0.31,-133.92 1.17,-268.22 -0.03,-402.07 -0.32,-35.91 3.32,-59.14 -14.99,-85.72 -12.09,-17.54 -33.04,-34.68 -63.79,-36.79 -15.9,-1.09 -34.61,-0.27 -50.8,-0.24l-150.28 -0.02c-67.01,-0.03 -134.03,-0.07 -201.03,0 -33.99,0.04 -62.64,-3.89 -88.67,12.17 -18.45,11.39 -35.2,31.96 -39.02,61.46 -1.91,14.75 -0.71,34.81 -0.75,50.13 -0.64,250.94 0.49,502.37 0.01,753.38 -0.07,36.9 -3.32,58.55 14.79,85.79 11.16,16.79 34.29,34.81 63.85,36.87 15.95,1.11 34.55,0.19 50.79,0.24l351.31 -0.01c33.86,-0.03 63.12,3.33 88.26,-12.72 18.36,-11.72 35.53,-31.72 39.66,-61.4z"/>
   <path fill="black" d="M244.51 107.24l-0.07 47.7c14.03,0.36 110.75,1.68 116.76,-0.31l0.04 -47.4c0.01,-17.9 6.37,-15.54 -22.47,-15.52l-80.61 0c-17.46,-0.01 -13.62,-2.69 -13.64,15.52z"/>
   <path fill="black" d="M294.38 812.67c-61.73,13.48 -39.85,104.77 19.96,91.09 21.46,-4.91 41.36,-26.8 35.3,-55.06 -4.76,-22.21 -26.39,-42.34 -55.26,-36.04z"/>
  </g>
 </g>
</svg>
