<?xml version="1.0" encoding="UTF-8"?>
<!DOCTYPE svg PUBLIC "-//W3C//DTD SVG 1.1//EN" "http://www.w3.org/Graphics/SVG/1.1/DTD/svg11.dtd">
<!-- Creator: CorelDRAW 2020 (64-Bit) -->
<svg xmlns="http://www.w3.org/2000/svg" xml:space="preserve" width="1cm" height="0.994017cm" version="1.1" shape-rendering="geometricPrecision" text-rendering="geometricPrecision" image-rendering="optimizeQuality" fill-rule="evenodd" clip-rule="evenodd"
viewBox="0 0 687.26 683.15"
 xmlnsXlink="http://www.w3.org/1999/xlink"
 xmlnsxodm="http://www.corel.com/coreldraw/odm/2003">
 <g id="Layer_x0020_1">
  <metadata id="CorelCorpID_0Corel-Layer"/>
  <path fill="#1877F2" d="M343.63 0c189.78,0 343.63,153.85 343.63,343.63 0,171.36 -125.44,313.41 -289.5,339.37l0 -242.03 80.07 0 15.23 -99.33 -95.3 0 0 -64.46c0,-27.18 13.31,-53.66 56,-53.66l43.33 0 0 -84.56c0,0 -39.33,-6.71 -76.92,-6.71 -78.49,0 -129.79,47.57 -129.79,133.69l0 75.71 -87.25 0 0 99.33 87.25 0 0 242.17c-164.49,-25.59 -290.38,-167.85 -290.38,-339.52 0,-189.78 153.85,-343.63 343.63,-343.63z"/>
 </g>
</svg>
