<?xml version="1.0" encoding="UTF-8"?>
<!DOCTYPE svg PUBLIC "-//W3C//DTD SVG 1.1//EN" "http://www.w3.org/Graphics/SVG/1.1/DTD/svg11.dtd">
<!-- Creator: CorelDRAW 2020 (64-Bit) -->
<svg xmlns="http://www.w3.org/2000/svg" xml:space="preserve" width="10.5cm" height="7.0896cm" version="1.1" shape-rendering="geometricPrecision" text-rendering="geometricPrecision" image-rendering="optimizeQuality" fill-rule="evenodd" clip-rule="evenodd"
viewBox="0 0 8304.53 5607.22"
 xmlnsXlink="http://www.w3.org/1999/xlink"
 xmlnsxodm="http://www.corel.com/coreldraw/odm/2003">
 <g id="Layer_x0020_1">
  <metadata id="CorelCorpID_0Corel-Layer"/>
  <g id="_1821851535280">
   <g>
    <path fill="black" fill-rule="nonzero" d="M4152.27 3547.7l3527.77 -3275.31c-239.17,-172.73 -538.13,-272.39 -857.03,-272.39l-5341.48 0c-318.89,0 -617.86,99.65 -857.03,272.39l3527.77 3275.31z"/>
    <path fill="black" fill-rule="nonzero" d="M5673.66 2803.61l2351.84 2185.75c172.73,-245.81 279.03,-544.78 279.03,-870.32l0 -2644.16c0,-325.54 -106.3,-624.5 -279.03,-870.32l-2351.84 2199.04z"/>
    <path fill="black" fill-rule="nonzero" d="M2630.88 2803.61l-2351.84 -2185.75c-172.73,245.81 -279.03,544.78 -279.03,870.32l0 2644.16c0,325.54 106.3,624.5 279.03,870.32l2351.84 -2199.04z"/>
    <path fill="black" fill-rule="nonzero" d="M5314.9 3135.79l-1162.63 1082.91 -1162.63 -1082.91 -2365.13 2199.04c239.17,172.73 538.13,272.39 857.03,272.39l5334.83 0c318.89,0 617.86,-99.65 857.03,-272.39l-2358.49 -2199.04z"/>
   </g>
  </g>
 </g>
</svg>
